<svg width="3941" height="2181" xmlns="http://www.w3.org/2000/svg" xmlns:xlink="http://www.w3.org/1999/xlink" xml:space="preserve" overflow="hidden"><defs><clipPath id="clip0"><rect x="2724" y="507" width="3941" height="2181"/></clipPath></defs><g clip-path="url(#clip0)" transform="translate(-2724 -507)"><path d="M2725 553.826C2725 528.517 2745.52 508 2770.83 508L6618.17 508C6643.48 508 6664 528.517 6664 553.826L6664 2641.17C6664 2666.48 6643.48 2687 6618.17 2687L2770.83 2687C2745.52 2687 2725 2666.48 2725 2641.17Z" fill="#FFFFFF" fill-rule="evenodd"/><g><rect x="3233" y="929" width="2979" height="1116" fill="#FFFFFF"/></g><g><path d="M3233 2017.07 6212 2017.07M3233 1989.07 6212 1989.07M3233 1961.06 6212 1961.06M3233 1933.06 6212 1933.06M3233 1878.06 6212 1878.06M3233 1850.06 6212 1850.06M3233 1822.06 6212 1822.06M3233 1794.06 6212 1794.06M3233 1738.06 6212 1738.06M3233 1710.06 6212 1710.06M3233 1682.06 6212 1682.06M3233 1654.05 6212 1654.05M3233 1599.05 6212 1599.05M3233 1571.05 6212 1571.05M3233 1543.05 6212 1543.05M3233 1515.05 6212 1515.05M3233 1459.05 6212 1459.05M3233 1431.05 6212 1431.05M3233 1403.05 6212 1403.05M3233 1375.05 6212 1375.05M3233 1320.04 6212 1320.04M3233 1292.04 6212 1292.04M3233 1264.04 6212 1264.04M3233 1236.04 6212 1236.04M3233 1180.04 6212 1180.04M3233 1152.04 6212 1152.04M3233 1124.04 6212 1124.04M3233 1096.04 6212 1096.04M3233 1041.03 6212 1041.03M3233 1013.03 6212 1013.03M3233 985.032 6212 985.032M3233 957.031 6212 957.031" stroke="#CCCCCC" stroke-width="2.29167" stroke-linejoin="round" stroke-miterlimit="10" stroke-opacity="0" fill="none"/></g><g><path d="M3233 1906.06 6212 1906.06M3233 1766.06 6212 1766.06M3233 1626.05 6212 1626.05M3233 1487.05 6212 1487.05M3233 1347.04 6212 1347.04M3233 1208.04 6212 1208.04M3233 1068.04 6212 1068.04M3233 929 6212 929" stroke="#B7B7B7" stroke-width="2.29167" stroke-linejoin="round" stroke-miterlimit="10" fill="none"/></g><g><path d="M3315.61 1821.56 3425.61 1821.56 3425.61 2045.5 3315.61 2045.5ZM3811.63 1808.56 3922.63 1808.56 3922.63 2045.5 3811.63 2045.5ZM4308.64 1804.56 4418.65 1804.56 4418.65 2045.5 4308.64 2045.5ZM4804.66 1774.56 4915.66 1774.56 4915.66 2045.5 4804.66 2045.5ZM5301.67 1768.56 5411.68 1768.56 5411.68 2045.5 5301.67 2045.5ZM5797.69 1705.56 5908.69 1705.56 5908.69 2045.5 5797.69 2045.5Z" stroke="#000000" stroke-width="3.4375" stroke-linejoin="round" stroke-miterlimit="10" fill="#4285F4"/></g><g><path d="M3425.61 1802.56 3536.62 1802.56 3536.62 2045.5 3425.61 2045.5ZM3922.63 1790.56 4032.63 1790.56 4032.63 2045.5 3922.63 2045.5ZM4418.65 1775.56 4529.65 1775.56 4529.65 2045.5 4418.65 2045.5ZM4915.66 1760.56 5025.67 1760.56 5025.67 2045.5 4915.66 2045.5ZM5411.68 1771.56 5521.68 1771.56 5521.68 2045.5 5411.68 2045.5ZM5908.69 1680.56 6018.7 1680.56 6018.7 2045.5 5908.69 2045.5Z" stroke="#000000" stroke-width="3.4375" stroke-linejoin="round" stroke-miterlimit="10" fill="#EA4335"/></g><g><path d="M3536.62 1843.56 3646.62 1843.56 3646.62 2045.5 3536.62 2045.5ZM4032.63 1799.56 4142.64 1799.56 4142.64 2045.5 4032.63 2045.5ZM4529.65 1803.56 4639.65 1803.56 4639.65 2045.5 4529.65 2045.5ZM5025.67 1801.56 5135.67 1801.56 5135.67 2045.5 5025.67 2045.5ZM5521.68 1793.56 5632.69 1793.56 5632.69 2045.5 5521.68 2045.5ZM6018.7 1006.53 6128.7 1006.53 6128.7 2045.5 6018.7 2045.5Z" stroke="#000000" stroke-width="3.4375" stroke-linejoin="round" stroke-miterlimit="10" fill="#FBBC04"/></g><g><path d="M0 0 0.000360892 1116" stroke="#000000" stroke-width="2.29167" stroke-linejoin="round" stroke-miterlimit="10" fill="none" fill-rule="evenodd" transform="matrix(1 0 0 -1 3233 2045)"/></g><g><path d="M3233 2045 6212 2045" stroke="#000000" stroke-width="2.29167" stroke-linejoin="round" stroke-miterlimit="10" fill="none" fill-rule="evenodd"/></g><g><path d="M3233 2045 6212 2045" stroke="#898989" stroke-width="2.29167" stroke-linejoin="round" stroke-miterlimit="10" fill="none" fill-rule="evenodd"/></g><g><path d="M3233 2045 3233 2225M3729.12 2045 3729.12 2225M4226.14 2045 4226.14 2225M4722.15 2045 4722.15 2225M5219.17 2045 5219.17 2225M5715.19 2045 5715.19 2225M6212 2045 6212 2225" stroke="#898989" stroke-width="2.29167" stroke-linejoin="round" stroke-miterlimit="10" fill="none"/></g><g><text font-family="Arial,Arial_MSFontService,sans-serif" font-weight="400" font-size="73" transform="matrix(1 0 0 1 3354.75 2158)">Original</text></g><g><text font-family="Arial,Arial_MSFontService,sans-serif" font-weight="400" font-size="73" transform="matrix(1 0 0 1 3759.54 2158)">Restore CNN</text></g><g><text font-family="Arial,Arial_MSFontService,sans-serif" font-weight="400" font-size="73" transform="matrix(1 0 0 1 4255.98 2158)">Restore GAN</text></g><g><text font-family="Arial,Arial_MSFontService,sans-serif" font-weight="400" font-size="73" transform="matrix(1 0 0 1 4838 2116)">Upscale</text></g><g><text font-family="Arial,Arial_MSFontService,sans-serif" font-weight="400" font-size="73" transform="matrix(1 0 0 1 4891.04 2200)">CNN</text></g><g><text font-family="Arial,Arial_MSFontService,sans-serif" font-weight="400" font-size="73" transform="matrix(1 0 0 1 5334.46 2116)">Upscale</text></g><g><text font-family="Arial,Arial_MSFontService,sans-serif" font-weight="400" font-size="73" transform="matrix(1 0 0 1 5338.57 2200)">GAN x3</text></g><g><text font-family="Arial,Arial_MSFontService,sans-serif" font-weight="400" font-size="73" transform="matrix(1 0 0 1 5830.92 2116)">Upscale</text></g><g><text font-family="Arial,Arial_MSFontService,sans-serif" font-weight="400" font-size="73" transform="matrix(1 0 0 1 5835.03 2200)">GAN x4</text></g><g><path d="M2941 2225 6212 2225M2941 2225 2941 2323M3233.11 2225 3233.11 2323M3233.11 2225 3233.11 2323M3729.12 2225 3729.12 2323M3729.12 2225 3729.12 2323M4226.14 2225 4226.14 2323M4226.14 2225 4226.14 2323M4722.16 2225 4722.16 2323M4722.16 2225 4722.16 2323M5219.17 2225 5219.17 2323M5219.17 2225 5219.17 2323M5715.19 2225 5715.19 2323M5715.19 2225 5715.19 2323M6212 2225 6212 2323M6212 2225 6212 2323" stroke="#898989" stroke-width="2.29167" stroke-linejoin="round" stroke-miterlimit="10" fill="none"/></g><g><rect x="2963.5" y="2254.5" width="37.0002" height="36.9998" stroke="#000000" stroke-width="3.4375" stroke-linejoin="round" stroke-miterlimit="10" fill="#4285F4"/></g><g><text font-family="Arial,Arial_MSFontService,sans-serif" font-weight="400" font-size="73" transform="matrix(1 0 0 1 3016.89 2296)">360p</text></g><g><text font-family="Arial,Arial_MSFontService,sans-serif" font-weight="400" font-size="73" transform="matrix(1 0 0 1 3409.74 2297)">1.60</text></g><g><text font-family="Arial,Arial_MSFontService,sans-serif" font-weight="400" font-size="73" transform="matrix(1 0 0 1 3906.19 2297)">1.70</text></g><g><text font-family="Arial,Arial_MSFontService,sans-serif" font-weight="400" font-size="73" transform="matrix(1 0 0 1 4402.65 2297)">1.72</text></g><g><text font-family="Arial,Arial_MSFontService,sans-serif" font-weight="400" font-size="73" transform="matrix(1 0 0 1 4899.11 2297)">1.94</text></g><g><text font-family="Arial,Arial_MSFontService,sans-serif" font-weight="400" font-size="73" transform="matrix(1 0 0 1 5395.57 2297)">1.98</text></g><g><text font-family="Arial,Arial_MSFontService,sans-serif" font-weight="400" font-size="73" transform="matrix(1 0 0 1 5892.02 2297)">2.43</text></g><g><path d="M2941 2323 6212 2323M2941 2323 2941 2420M3233.11 2323 3233.11 2420M3233.11 2323 3233.11 2420M3729.12 2323 3729.12 2420M3729.12 2323 3729.12 2420M4226.14 2323 4226.14 2420M4226.14 2323 4226.14 2420M4722.16 2323 4722.16 2420M4722.16 2323 4722.16 2420M5219.17 2323 5219.17 2420M5219.17 2323 5219.17 2420M5715.19 2323 5715.19 2420M5715.19 2323 5715.19 2420M6212 2323 6212 2420M6212 2323 6212 2420" stroke="#898989" stroke-width="2.29167" stroke-linejoin="round" stroke-miterlimit="10" fill="none"/></g><g><rect x="2963.5" y="2351.5" width="37.0002" height="36.9998" stroke="#000000" stroke-width="3.4375" stroke-linejoin="round" stroke-miterlimit="10" fill="#EA4335"/></g><g><text font-family="Arial,Arial_MSFontService,sans-serif" font-weight="400" font-size="73" transform="matrix(1 0 0 1 3016.89 2393)">720p</text></g><g><text font-family="Arial,Arial_MSFontService,sans-serif" font-weight="400" font-size="73" transform="matrix(1 0 0 1 3409.74 2394)">1.74</text></g><g><text font-family="Arial,Arial_MSFontService,sans-serif" font-weight="400" font-size="73" transform="matrix(1 0 0 1 3906.19 2394)">1.82</text></g><g><text font-family="Arial,Arial_MSFontService,sans-serif" font-weight="400" font-size="73" transform="matrix(1 0 0 1 4402.65 2394)">1.94</text></g><g><text font-family="Arial,Arial_MSFontService,sans-serif" font-weight="400" font-size="73" transform="matrix(1 0 0 1 4899.11 2394)">2.04</text></g><g><text font-family="Arial,Arial_MSFontService,sans-serif" font-weight="400" font-size="73" transform="matrix(1 0 0 1 5395.57 2394)">1.96</text></g><g><text font-family="Arial,Arial_MSFontService,sans-serif" font-weight="400" font-size="73" transform="matrix(1 0 0 1 5892.02 2394)">2.61</text></g><g><path d="M2941 2420 6212 2420M2941 2420 2941 2517M2941 2517 6212 2517M3233.11 2420 3233.11 2517M3233.11 2420 3233.11 2517M3729.12 2420 3729.12 2517M3729.12 2420 3729.12 2517M4226.14 2420 4226.14 2517M4226.14 2420 4226.14 2517M4722.16 2420 4722.16 2517M4722.16 2420 4722.16 2517M5219.17 2420 5219.17 2517M5219.17 2420 5219.17 2517M5715.19 2420 5715.19 2517M5715.19 2420 5715.19 2517M6212 2420 6212 2517M6212 2420 6212 2517" stroke="#898989" stroke-width="2.29167" stroke-linejoin="round" stroke-miterlimit="10" fill="none"/></g><g><rect x="2963.5" y="2448.5" width="37.0002" height="37.0002" stroke="#000000" stroke-width="3.4375" stroke-linejoin="round" stroke-miterlimit="10" fill="#FBBC04"/></g><g><text font-family="Arial,Arial_MSFontService,sans-serif" font-weight="400" font-size="73" transform="matrix(1 0 0 1 3016.89 2490)">1080p</text></g><g><text font-family="Arial,Arial_MSFontService,sans-serif" font-weight="400" font-size="73" transform="matrix(1 0 0 1 3409.74 2492)">1.45</text></g><g><text font-family="Arial,Arial_MSFontService,sans-serif" font-weight="400" font-size="73" transform="matrix(1 0 0 1 3906.19 2492)">1.76</text></g><g><text font-family="Arial,Arial_MSFontService,sans-serif" font-weight="400" font-size="73" transform="matrix(1 0 0 1 4402.65 2492)">1.73</text></g><g><text font-family="Arial,Arial_MSFontService,sans-serif" font-weight="400" font-size="73" transform="matrix(1 0 0 1 4899.11 2492)">1.74</text></g><g><text font-family="Arial,Arial_MSFontService,sans-serif" font-weight="400" font-size="73" transform="matrix(1 0 0 1 5395.57 2492)">1.80</text></g><g><text font-family="Arial,Arial_MSFontService,sans-serif" font-weight="400" font-size="73" transform="matrix(1 0 0 1 5892.02 2492)">7.45</text></g><g><text font-family="Arial,Arial_MSFontService,sans-serif" font-weight="400" font-size="73" transform="matrix(1 0 0 1 3006.67 2068)">0.00</text></g><g><text font-family="Arial,Arial_MSFontService,sans-serif" font-weight="400" font-size="73" transform="matrix(1 0 0 1 3006.67 1928)">1.00</text></g><g><text font-family="Arial,Arial_MSFontService,sans-serif" font-weight="400" font-size="73" transform="matrix(1 0 0 1 3006.67 1789)">2.00</text></g><g><text font-family="Arial,Arial_MSFontService,sans-serif" font-weight="400" font-size="73" transform="matrix(1 0 0 1 3006.67 1649)">3.00</text></g><g><text font-family="Arial,Arial_MSFontService,sans-serif" font-weight="400" font-size="73" transform="matrix(1 0 0 1 3006.67 1510)">4.00</text></g><g><text font-family="Arial,Arial_MSFontService,sans-serif" font-weight="400" font-size="73" transform="matrix(1 0 0 1 3006.67 1370)">5.00</text></g><g><text font-family="Arial,Arial_MSFontService,sans-serif" font-weight="400" font-size="73" transform="matrix(1 0 0 1 3006.67 1231)">6.00</text></g><g><text font-family="Arial,Arial_MSFontService,sans-serif" font-weight="400" font-size="73" transform="matrix(1 0 0 1 3006.67 1091)">7.00</text></g><g><text font-family="Arial,Arial_MSFontService,sans-serif" font-weight="400" font-size="73" transform="matrix(1 0 0 1 3006.67 952)">8.00</text></g><g><text font-family="Arial,Arial_MSFontService,sans-serif" font-weight="400" font-size="92" transform="matrix(6.12323e-17 -1 1 6.12323e-17 2868.09 1933)">GPU Time (ms/frame)</text></g><g><text font-family="Arial,Arial_MSFontService,sans-serif" font-weight="400" font-size="92" transform="matrix(1 0 0 1 4540.57 2638)">Effects</text></g><g><text fill="#757575" font-family="Arial,Arial_MSFontService,sans-serif" font-weight="400" font-size="138" transform="matrix(1 0 0 1 3439.8 671)">GPU</text></g><g><text fill="#757575" font-family="Arial,Arial_MSFontService,sans-serif" font-weight="400" font-size="138" transform="matrix(1 0 0 1 3773.49 671)">T</text></g><g><text fill="#757575" font-family="Arial,Arial_MSFontService,sans-serif" font-weight="400" font-size="138" transform="matrix(1 0 0 1 3852.37 671)">ime with Different Input Video Size </text></g><g><text fill="#757575" font-family="Arial,Arial_MSFontService,sans-serif" font-weight="400" font-size="138" transform="matrix(1 0 0 1 4285.68 829)">(RTX 3070Ti)</text></g><g><rect x="6293.5" y="1101.5" width="46" height="46.0001" stroke="#000000" stroke-width="3.4375" stroke-linejoin="round" stroke-miterlimit="10" fill="#4285F4"/></g><g><text fill="#1A1A1A" font-family="Arial,Arial_MSFontService,sans-serif" font-weight="400" font-size="92" transform="matrix(1 0 0 1 6361.17 1154)">360p</text></g><g><rect x="6293.5" y="1230.5" width="46" height="45.9998" stroke="#000000" stroke-width="3.4375" stroke-linejoin="round" stroke-miterlimit="10" fill="#EA4335"/></g><g><text fill="#1A1A1A" font-family="Arial,Arial_MSFontService,sans-serif" font-weight="400" font-size="92" transform="matrix(1 0 0 1 6361.17 1283)">720p</text></g><g><rect x="6293.5" y="1359.5" width="46" height="46.0001" stroke="#000000" stroke-width="3.4375" stroke-linejoin="round" stroke-miterlimit="10" fill="#FBBC04"/></g><g><text fill="#1A1A1A" font-family="Arial,Arial_MSFontService,sans-serif" font-weight="400" font-size="92" transform="matrix(1 0 0 1 6361.17 1412)">1080p</text></g><path d="M2725 553.826C2725 528.517 2745.52 508 2770.83 508L6618.17 508C6643.48 508 6664 528.517 6664 553.826L6664 2641.17C6664 2666.48 6643.48 2687 6618.17 2687L2770.83 2687C2745.52 2687 2725 2666.48 2725 2641.17Z" stroke="#898989" stroke-width="2.29167" stroke-linejoin="round" stroke-miterlimit="10" fill="none" fill-rule="evenodd"/></g></svg>