<svg width="3683" height="2089" xmlns="http://www.w3.org/2000/svg" xmlns:xlink="http://www.w3.org/1999/xlink" xml:space="preserve" overflow="hidden"><defs><clipPath id="clip0"><rect x="2618" y="1151" width="3683" height="2089"/></clipPath></defs><g clip-path="url(#clip0)" transform="translate(-2618 -1151)"><path d="M2619 1197.81C2619 1172.51 2639.51 1152 2664.81 1152L6254.19 1152C6279.49 1152 6300 1172.51 6300 1197.81L6300 3193.19C6300 3218.49 6279.49 3239 6254.19 3239L2664.81 3239C2639.51 3239 2619 3218.49 2619 3193.19Z" fill="#FFFFFF" fill-rule="evenodd"/><g><rect x="3176" y="1425" width="2437" height="1270" fill="#FFFFFF"/></g><g><path d="M3176 2652.09 5613 2652.09M3176 2610.09 5613 2610.09M3176 2568.08 5613 2568.08M3176 2525.08 5613 2525.08M3176 2441.08 5613 2441.08M3176 2399.08 5613 2399.08M3176 2356.08 5613 2356.08M3176 2314.08 5613 2314.08M3176 2229.07 5613 2229.07M3176 2187.07 5613 2187.07M3176 2145.07 5613 2145.07M3176 2102.07 5613 2102.07M3176 2018.07 5613 2018.07M3176 1975.06 5613 1975.06M3176 1933.06 5613 1933.06M3176 1891.06 5613 1891.06M3176 1806.06 5613 1806.06M3176 1764.06 5613 1764.06M3176 1721.06 5613 1721.06M3176 1679.06 5613 1679.06M3176 1595.05 5613 1595.05M3176 1552.05 5613 1552.05M3176 1510.05 5613 1510.05M3176 1468.05 5613 1468.05" stroke="#CCCCCC" stroke-width="2.29167" stroke-linejoin="round" stroke-miterlimit="10" stroke-opacity="0" fill="none"/></g><g><path d="M3176 2483.08 5613 2483.08M3176 2272.07 5613 2272.07M3176 2060.07 5613 2060.07M3176 1848.06 5613 1848.06M3176 1637.05 5613 1637.05M3176 1425 5613 1425" stroke="#B7B7B7" stroke-width="2.29167" stroke-linejoin="round" stroke-miterlimit="10" fill="none"/></g><g><path d="M3263.61 1959.56 3379.61 1959.56 3379.61 2694.5 3263.61 2694.5ZM3669.62 1924.56 3785.62 1924.56 3785.62 2694.5 3669.62 2694.5ZM4075.63 1875.56 4191.64 1875.56 4191.64 2694.5 4075.63 2694.5ZM4481.65 1830.56 4597.65 1830.56 4597.65 2694.5 4481.65 2694.5ZM4887.66 1866.56 5003.66 1866.56 5003.66 2694.5 4887.66 2694.5ZM5293.67 1589.55 5409.68 1589.55 5409.68 2694.5 5293.67 2694.5Z" stroke="#000000" stroke-width="3.4375" stroke-linejoin="round" stroke-miterlimit="10" fill="#4285F4"/></g><g><path d="M3379.61 2031.57 3495.61 2031.57 3495.61 2694.5 3379.61 2694.5ZM3785.62 1931.56 3901.63 1931.56 3901.63 2694.5 3785.62 2694.5ZM4191.64 1939.56 4307.64 1939.56 4307.64 2694.5 4191.64 2694.5ZM4597.65 1929.56 4713.65 1929.56 4713.65 2694.5 4597.65 2694.5ZM5003.66 1914.56 5119.67 1914.56 5119.67 2694.5 5003.66 2694.5ZM5409.68 1753.56 5525.68 1753.56 5525.68 2694.5 5409.68 2694.5Z" stroke="#000000" stroke-width="3.4375" stroke-linejoin="round" stroke-miterlimit="10" fill="#EA4335"/></g><g><path d="M0 0 0.000360892 1270" stroke="#000000" stroke-width="2.29167" stroke-linejoin="round" stroke-miterlimit="10" fill="none" fill-rule="evenodd" transform="matrix(1 0 0 -1 3176 2695)"/></g><g><path d="M3176 2695 5613 2695" stroke="#000000" stroke-width="2.29167" stroke-linejoin="round" stroke-miterlimit="10" fill="none" fill-rule="evenodd"/></g><g><path d="M3176 2695 5613 2695" stroke="#898989" stroke-width="2.29167" stroke-linejoin="round" stroke-miterlimit="10" fill="none" fill-rule="evenodd"/></g><g><path d="M3176 2695 3176 2875M3582.12 2695 3582.12 2875M3988.13 2695 3988.13 2875M4394.14 2695 4394.14 2875M4801.16 2695 4801.16 2875M5207.17 2695 5207.17 2875M5613 2695 5613 2875" stroke="#898989" stroke-width="2.29167" stroke-linejoin="round" stroke-miterlimit="10" fill="none"/></g><g><text font-family="Arial,Arial_MSFontService,sans-serif" font-weight="400" font-size="73" transform="matrix(1 0 0 1 3252.8 2808)">Original</text></g><g><text font-family="Arial,Arial_MSFontService,sans-serif" font-weight="400" font-size="73" transform="matrix(1 0 0 1 3656.93 2766)">Restore</text></g><g><text font-family="Arial,Arial_MSFontService,sans-serif" font-weight="400" font-size="73" transform="matrix(1 0 0 1 3705.89 2850)">CNN</text></g><g><text font-family="Arial,Arial_MSFontService,sans-serif" font-weight="400" font-size="73" transform="matrix(1 0 0 1 4063.1 2766)">Restore</text></g><g><text font-family="Arial,Arial_MSFontService,sans-serif" font-weight="400" font-size="73" transform="matrix(1 0 0 1 4112.05 2850)">GAN</text></g><g><text font-family="Arial,Arial_MSFontService,sans-serif" font-weight="400" font-size="73" transform="matrix(1 0 0 1 4465.19 2766)">Upscale</text></g><g><text font-family="Arial,Arial_MSFontService,sans-serif" font-weight="400" font-size="73" transform="matrix(1 0 0 1 4518.23 2850)">CNN</text></g><g><text font-family="Arial,Arial_MSFontService,sans-serif" font-weight="400" font-size="73" transform="matrix(1 0 0 1 4871.36 2766)">Upscale</text></g><g><text font-family="Arial,Arial_MSFontService,sans-serif" font-weight="400" font-size="73" transform="matrix(1 0 0 1 4875.47 2850)">GAN x3</text></g><g><text font-family="Arial,Arial_MSFontService,sans-serif" font-weight="400" font-size="73" transform="matrix(1 0 0 1 5277.52 2766)">Upscale</text></g><g><text font-family="Arial,Arial_MSFontService,sans-serif" font-weight="400" font-size="73" transform="matrix(1 0 0 1 5281.64 2850)">GAN x4</text></g><g><path d="M2697 2875 5613 2875M2697 2875 2697 2972M3176.1 2875 3176.1 2972M3176.1 2875 3176.1 2972M3582.12 2875 3582.12 2972M3582.12 2875 3582.12 2972M3988.13 2875 3988.13 2972M3988.13 2875 3988.13 2972M4394.14 2875 4394.14 2972M4394.14 2875 4394.14 2972M4801.16 2875 4801.16 2972M4801.16 2875 4801.16 2972M5207.17 2875 5207.17 2972M5207.17 2875 5207.17 2972M5613 2875 5613 2972M5613 2875 5613 2972" stroke="#898989" stroke-width="2.29167" stroke-linejoin="round" stroke-miterlimit="10" fill="none"/></g><g><rect x="2719.5" y="2903.5" width="37.0002" height="36.9998" stroke="#000000" stroke-width="3.4375" stroke-linejoin="round" stroke-miterlimit="10" fill="#4285F4"/></g><g><text font-family="Arial,Arial_MSFontService,sans-serif" font-weight="400" font-size="73" transform="matrix(1 0 0 1 2772.74 2945)">RTX 3070Ti</text></g><g><text font-family="Arial,Arial_MSFontService,sans-serif" font-weight="400" font-size="73" transform="matrix(1 0 0 1 3307.79 2946)">1.74</text></g><g><text font-family="Arial,Arial_MSFontService,sans-serif" font-weight="400" font-size="73" transform="matrix(1 0 0 1 3713.96 2946)">1.82</text></g><g><text font-family="Arial,Arial_MSFontService,sans-serif" font-weight="400" font-size="73" transform="matrix(1 0 0 1 4120.13 2946)">1.94</text></g><g><text font-family="Arial,Arial_MSFontService,sans-serif" font-weight="400" font-size="73" transform="matrix(1 0 0 1 4526.29 2946)">2.04</text></g><g><text font-family="Arial,Arial_MSFontService,sans-serif" font-weight="400" font-size="73" transform="matrix(1 0 0 1 4932.46 2946)">1.96</text></g><g><text font-family="Arial,Arial_MSFontService,sans-serif" font-weight="400" font-size="73" transform="matrix(1 0 0 1 5338.63 2946)">2.61</text></g><g><path d="M2697 2972 5613 2972M2697 2972 2697 3070M2697 3070 5613 3070M3176.1 2972 3176.1 3070M3176.1 2972 3176.1 3070M3582.12 2972 3582.12 3070M3582.12 2972 3582.12 3070M3988.13 2972 3988.13 3070M3988.13 2972 3988.13 3070M4394.14 2972 4394.14 3070M4394.14 2972 4394.14 3070M4801.16 2972 4801.16 3070M4801.16 2972 4801.16 3070M5207.17 2972 5207.17 3070M5207.17 2972 5207.17 3070M5613 2972 5613 3070M5613 2972 5613 3070" stroke="#898989" stroke-width="2.29167" stroke-linejoin="round" stroke-miterlimit="10" fill="none"/></g><g><rect x="2719.5" y="3001.5" width="37.0002" height="36.9998" stroke="#000000" stroke-width="3.4375" stroke-linejoin="round" stroke-miterlimit="10" fill="#EA4335"/></g><g><text font-family="Arial,Arial_MSFontService,sans-serif" font-weight="400" font-size="73" transform="matrix(1 0 0 1 2772.74 3043)">RTX 4090</text></g><g><text font-family="Arial,Arial_MSFontService,sans-serif" font-weight="400" font-size="73" transform="matrix(1 0 0 1 3307.79 3044)">1.57</text></g><g><text font-family="Arial,Arial_MSFontService,sans-serif" font-weight="400" font-size="73" transform="matrix(1 0 0 1 3713.96 3044)">1.80</text></g><g><text font-family="Arial,Arial_MSFontService,sans-serif" font-weight="400" font-size="73" transform="matrix(1 0 0 1 4120.13 3044)">1.78</text></g><g><text font-family="Arial,Arial_MSFontService,sans-serif" font-weight="400" font-size="73" transform="matrix(1 0 0 1 4526.29 3044)">1.81</text></g><g><text font-family="Arial,Arial_MSFontService,sans-serif" font-weight="400" font-size="73" transform="matrix(1 0 0 1 4932.46 3044)">1.84</text></g><g><text font-family="Arial,Arial_MSFontService,sans-serif" font-weight="400" font-size="73" transform="matrix(1 0 0 1 5338.63 3044)">2.22</text></g><g><text font-family="Arial,Arial_MSFontService,sans-serif" font-weight="400" font-size="73" transform="matrix(1 0 0 1 2949.86 2718)">0.00</text></g><g><text font-family="Arial,Arial_MSFontService,sans-serif" font-weight="400" font-size="73" transform="matrix(1 0 0 1 2949.86 2506)">0.50</text></g><g><text font-family="Arial,Arial_MSFontService,sans-serif" font-weight="400" font-size="73" transform="matrix(1 0 0 1 2949.86 2295)">1.00</text></g><g><text font-family="Arial,Arial_MSFontService,sans-serif" font-weight="400" font-size="73" transform="matrix(1 0 0 1 2949.86 2083)">1.50</text></g><g><text font-family="Arial,Arial_MSFontService,sans-serif" font-weight="400" font-size="73" transform="matrix(1 0 0 1 2949.86 1871)">2.00</text></g><g><text font-family="Arial,Arial_MSFontService,sans-serif" font-weight="400" font-size="73" transform="matrix(1 0 0 1 2949.86 1660)">2.50</text></g><g><text font-family="Arial,Arial_MSFontService,sans-serif" font-weight="400" font-size="73" transform="matrix(1 0 0 1 2949.86 1448)">3.00</text></g><g><text font-family="Arial,Arial_MSFontService,sans-serif" font-weight="400" font-size="92" transform="matrix(6.12323e-17 -1 1 6.12323e-17 2762.67 2531)">GPU</text></g><g><text font-family="Arial,Arial_MSFontService,sans-serif" font-weight="400" font-size="92" transform="matrix(6.12323e-17 -1 1 6.12323e-17 2762.67 2309)">Time (ms / frame)</text></g><g><text font-family="Arial,Arial_MSFontService,sans-serif" font-weight="400" font-size="92" transform="matrix(1 0 0 1 4255.32 3190)">Effects</text></g><g><text fill="#757575" font-family="Arial,Arial_MSFontService,sans-serif" font-weight="400" font-size="147" transform="matrix(1 0 0 1 3503.33 1324)">GPU Time for Different GPUs </text></g><g><rect x="5705.5" y="1499.5" width="46" height="46.0001" stroke="#000000" stroke-width="3.4375" stroke-linejoin="round" stroke-miterlimit="10" fill="#4285F4"/></g><g><text fill="#1A1A1A" font-family="Arial,Arial_MSFontService,sans-serif" font-weight="400" font-size="92" transform="matrix(1 0 0 1 5773.25 1552)">RTX 3070Ti</text></g><g><rect x="5705.5" y="1674.5" width="46" height="46.0001" stroke="#000000" stroke-width="3.4375" stroke-linejoin="round" stroke-miterlimit="10" fill="#EA4335"/></g><g><text fill="#1A1A1A" font-family="Arial,Arial_MSFontService,sans-serif" font-weight="400" font-size="92" transform="matrix(1 0 0 1 5773.25 1726)">RTX 4090</text></g><path d="M2619 1197.81C2619 1172.51 2639.51 1152 2664.81 1152L6254.19 1152C6279.49 1152 6300 1172.51 6300 1197.81L6300 3193.19C6300 3218.49 6279.49 3239 6254.19 3239L2664.81 3239C2639.51 3239 2619 3218.49 2619 3193.19Z" stroke="#898989" stroke-width="2.29167" stroke-linejoin="round" stroke-miterlimit="10" fill="none" fill-rule="evenodd"/></g></svg>